<svg width="140" height="195" viewBox="0 0 140 195" xmlns="http://www.w3.org/2000/svg" xmlns:xlink="http://www.w3.org/1999/xlink" fill="none" overflow="hidden"><style>
.MsftOfcThm_Text1_Fill_v2 {
 fill:#FFFFFF; 
}
</style>
<defs><clipPath id="clip0_76_64"><rect x="0" y="0" width="140" height="195" fill="#FFFFFF"/></clipPath></defs><g clip-path="url(#clip0_76_64)"><path d="M20 77 120 77 120 49 20 49 20 77ZM28 57 112 57 112 69 28 69 28 57ZM74 129 120 129 120 89 74 89 74 129ZM82 97 112 97 112 121 82 121 82 97ZM20 89 66 89 66 97 20 97 20 89ZM20 121 66 121 66 129 20 129 20 121ZM20 105 66 105 66 113 20 113 20 105ZM20 137 66 137 66 145 20 145 20 137ZM20 153 66 153 66 161 20 161 20 153ZM74 137 120 137 120 145 74 145 74 137ZM74 153 120 153 120 161 74 161 74 153ZM107.7 0 0 0 0 181 140 181 140 32.3 107.7 0ZM107 10.7 129.3 33 107 33 107 10.7ZM8 173 8 8 99 8 99 41 132 41 132 173 8 173ZM0 187 0 191 8 195 132 195 140 191 140 187 0 187Z" class="MsftOfcThm_Text1_Fill_v2" stroke="none" stroke-width="1" stroke-linecap="butt" stroke-linejoin="miter" stroke-miterlimit="4" fill="#FFFFFF" fill-opacity="1"/></g></svg>